<svg width="151" height="124" fill="none" xmlns="http://www.w3.org/2000/svg"><path d="M135.139 31.176c.091 1.32.091 2.638.091 3.97 0 40.56-30.93 87.341-87.488 87.341v-.025A87.15 87.15 0 01.609 108.701a61.803 61.803 0 0045.507-12.722c-13.158-.25-24.696-8.814-28.727-21.318 4.61.888 9.359.706 13.883-.528C16.927 71.239 6.606 58.657 6.606 44.044v-.389a30.593 30.593 0 0013.956 3.842C7.05 38.483 2.886 20.539 11.045 6.51a87.321 87.321 0 0063.371 32.07 30.682 30.682 0 018.896-29.33c12.384-11.622 31.862-11.026 43.504 1.332a61.764 61.764 0 0019.526-7.453 30.816 30.816 0 01-13.517 16.978 61.224 61.224 0 0017.657-4.833 62.398 62.398 0 01-15.343 15.901z" fill="#fff"/></svg>