<svg width="39" height="39" fill="none" xmlns="http://www.w3.org/2000/svg"><path fill-rule="evenodd" clip-rule="evenodd" d="M19.5 39C30.27 39 39 30.27 39 19.5S30.27 0 19.5 0 0 8.73 0 19.5 8.73 39 19.5 39zm18-19.5c0 9.941-8.059 18-18 18s-18-8.059-18-18 8.059-18 18-18 18 8.059 18 18zm-10.775-2.032c0-.15 0-.3-.01-.448a7.037 7.037 0 001.727-1.795 6.878 6.878 0 01-1.988.545 3.478 3.478 0 001.522-1.916 6.944 6.944 0 01-2.199.84 3.463 3.463 0 00-4.898-.15 3.47 3.47 0 00-1.001 3.312 9.822 9.822 0 01-7.135-3.62 3.472 3.472 0 001.072 4.627 3.437 3.437 0 01-1.571-.434v.044c0 1.65 1.162 3.07 2.777 3.397a3.44 3.44 0 01-1.563.06 3.467 3.467 0 003.234 2.406 6.946 6.946 0 01-5.123 1.437 9.79 9.79 0 005.306 1.553v.003c6.367 0 9.85-5.281 9.85-9.86z" fill="#fff"/></svg>